<svg width="30" height="30" viewBox="0 0 30 30" fill="none" xmlns="http://www.w3.org/2000/svg">
<path d="M14.9999 0.833313C7.17992 0.833313 0.833252 7.17998 0.833252 15C0.833252 22.82 7.17992 29.1666 14.9999 29.1666C22.8199 29.1666 29.1666 22.82 29.1666 15C29.1666 7.17998 22.8199 0.833313 14.9999 0.833313ZM8.01575 23.8966C8.62492 22.6216 12.3366 21.375 14.9999 21.375C17.6633 21.375 21.3891 22.6216 21.9841 23.8966C20.0574 25.4266 17.6349 26.3333 14.9999 26.3333C12.3649 26.3333 9.94242 25.4266 8.01575 23.8966ZM24.0099 21.8425C21.9841 19.3775 17.0683 18.5416 14.9999 18.5416C12.9316 18.5416 8.01575 19.3775 5.98992 21.8425C4.54492 19.9441 3.66659 17.5783 3.66659 15C3.66659 8.75248 8.75242 3.66665 14.9999 3.66665C21.2474 3.66665 26.3333 8.75248 26.3333 15C26.3333 17.5783 25.4549 19.9441 24.0099 21.8425ZM14.9999 6.49998C12.2516 6.49998 10.0416 8.70998 10.0416 11.4583C10.0416 14.2066 12.2516 16.4166 14.9999 16.4166C17.7483 16.4166 19.9583 14.2066 19.9583 11.4583C19.9583 8.70998 17.7483 6.49998 14.9999 6.49998ZM14.9999 13.5833C13.8241 13.5833 12.8749 12.6341 12.8749 11.4583C12.8749 10.2825 13.8241 9.33331 14.9999 9.33331C16.1758 9.33331 17.1249 10.2825 17.1249 11.4583C17.1249 12.6341 16.1758 13.5833 14.9999 13.5833Z" fill="black"/>
</svg>
